<svg width="22" height="22" viewBox="0 0 22 22" fill="none" xmlns="http://www.w3.org/2000/svg">
<path d="M11.0048 5.6094C7.8816 5.6094 5.3624 8.01409 5.3624 10.9953C5.3624 13.9766 7.8816 16.3813 11.0048 16.3813C14.128 16.3813 16.6472 13.9766 16.6472 10.9953C16.6472 8.01409 14.128 5.6094 11.0048 5.6094ZM11.0048 14.4969C8.98651 14.4969 7.33651 12.9266 7.33651 10.9953C7.33651 9.06409 8.9816 7.49377 11.0048 7.49377C13.028 7.49377 14.6731 9.06409 14.6731 10.9953C14.6731 12.9266 13.0231 14.4969 11.0048 14.4969ZM18.1941 5.38909C18.1941 6.08752 17.6048 6.64534 16.878 6.64534C16.1463 6.64534 15.562 6.08284 15.562 5.38909C15.562 4.69534 16.1512 4.13284 16.878 4.13284C17.6048 4.13284 18.1941 4.69534 18.1941 5.38909ZM21.9311 6.66409C21.8477 4.98127 21.445 3.49065 20.1535 2.26252C18.8669 1.0344 17.3053 0.650024 15.5423 0.565649C13.7253 0.467212 8.27936 0.467212 6.4624 0.565649C4.70436 0.645337 3.14276 1.02971 1.85124 2.25784C0.55972 3.48596 0.161952 4.97659 0.0735596 6.6594C-0.0295654 8.39377 -0.0295654 13.5922 0.0735596 15.3266C0.157042 17.0094 0.55972 18.5 1.85124 19.7281C3.14276 20.9563 4.69945 21.3406 6.4624 21.425C8.27936 21.5235 13.7253 21.5235 15.5423 21.425C17.3053 21.3453 18.8669 20.961 20.1535 19.7281C21.4401 18.5 21.8428 17.0094 21.9311 15.3266C22.0343 13.5922 22.0343 8.39846 21.9311 6.66409ZM19.5838 17.1875C19.2008 18.1063 18.4593 18.8141 17.4919 19.1844C16.0432 19.7328 12.6057 19.6063 11.0048 19.6063C9.40392 19.6063 5.96151 19.7281 4.51776 19.1844C3.55526 18.8188 2.81374 18.111 2.42579 17.1875C1.85124 15.8047 1.98383 12.5235 1.98383 10.9953C1.98383 9.46721 1.85615 6.18127 2.42579 4.80315C2.80883 3.8844 3.55034 3.17659 4.51776 2.80627C5.96642 2.25784 9.40392 2.3844 11.0048 2.3844C12.6057 2.3844 16.0481 2.26252 17.4919 2.80627C18.4544 3.1719 19.1959 3.87971 19.5838 4.80315C20.1584 6.18596 20.0258 9.46721 20.0258 10.9953C20.0258 12.5235 20.1584 15.8094 19.5838 17.1875Z" fill="#4C7BF3"/>
</svg>
