<svg width="22" height="20" viewBox="0 0 22 20" fill="none" xmlns="http://www.w3.org/2000/svg">
<path d="M19.7386 5.11163C19.7525 5.32482 19.7525 5.53805 19.7525 5.75124C19.7525 12.2537 15.2157 19.7461 6.92386 19.7461C4.36928 19.7461 1.9962 18.939 0 17.538C0.362957 17.5837 0.711906 17.5989 1.08883 17.5989C3.19666 17.5989 5.13704 16.8223 6.68654 15.4974C4.7043 15.4517 3.04313 14.0355 2.47079 12.0863C2.75 12.1319 3.02917 12.1624 3.32234 12.1624C3.72715 12.1624 4.132 12.1014 4.50888 11.9949C2.4429 11.538 0.893363 9.55833 0.893363 7.16747V7.10658C1.49359 7.47206 2.19162 7.70049 2.93141 7.73091C1.71695 6.84764 0.921293 5.34005 0.921293 3.63446C0.921293 2.72077 1.1446 1.88321 1.53549 1.15224C3.75504 4.137 7.09135 6.08621 10.8324 6.29944C10.7626 5.93396 10.7207 5.55328 10.7207 5.17257C10.7207 2.46188 12.7309 0.253784 15.2296 0.253784C16.5278 0.253784 17.7004 0.847691 18.524 1.80708C19.543 1.59389 20.5202 1.18271 21.3857 0.619269C21.0506 1.76142 20.3387 2.72082 19.4035 3.32991C20.3109 3.22336 21.1903 2.94919 21.9999 2.56852C21.3858 3.5431 20.618 4.41108 19.7386 5.11163Z" fill="#4C7BF3"/>
</svg>
